<svg id="copy-2" data-name="Layer 1" xmlns="http://www.w3.org/2000/svg" viewBox="0 0 24 24" class="icon line" width="24" height="24"><path id="primary" d="M15,17v3a1,1,0,0,1-1,1H4a1,1,0,0,1-1-1V8A1,1,0,0,1,4,7H7" style="fill: none; stroke: rgb(0, 0, 0); stroke-linecap: round; stroke-linejoin: round; stroke-width: 2;"></path><path id="primary-2" data-name="primary" d="M7,5V16a1,1,0,0,0,1,1H18a1,1,0,0,0,1-1V4a1,1,0,0,0-1-1H9ZM7,5H9V3Z" style="fill: none; stroke: rgb(0, 0, 0); stroke-linecap: round; stroke-linejoin: round; stroke-width: 2;"></path></svg>