<svg width="430" height="344" viewBox="0 0 430 344" xmlns="http://www.w3.org/2000/svg">
    <g fill="none" fill-rule="evenodd">
        <path d="M275.113 40.727c-14.455-18.122-43.974-34.852-21.181-1.666 19.58 28.509 1.75 51.65 22.545 58.797 12.42 4.269 6.07-16.754 33.608-26.79 26.155-9.532-10.104-21.532-34.972-30.34" fill-opacity=".072" fill="#34F576"/>
        <path d="M221.857 247.489c-60.54-18.544-208.366-19.826-150.406-83.684 33.407-36.806-4.892-47.95-18.563-73.253-13.67-25.302 17.672-102.085 71.1-67.351 53.43 34.734 70.316-5.468 103.79 14.272 33.473 19.74 26.163 86.34 60.183 64.819 34.02-21.521 73.633 52.169 45.545 86.1-28.088 33.93-111.649 59.097-111.649 59.097" fill-opacity=".072" fill="#34F576"/>
        <path d="M97.598 284.756c-6.668-6.697-3.392-10.277-1.055-14.87 2.337-4.594 3.566-7.504-.628-13.053-4.194-5.55 11.044-10.779 12.872-4.735 1.83 6.045-5.297 13.43 1.3 17.337 6.597 3.909 11.501 4.658 2.655 9.07-8.845 4.412-15.144 6.25-15.144 6.25" fill="#5D7DEF"/>
        <path d="M100.333 298.365s-3.435-12.778-9.04-13.489c-5.604-.71-7.412 4.615-14.645 0-7.231-4.614-18.441-10.47-20.069-6.388-1.626 4.082 7.052 2.882 9.583 9.25 2.531 6.367 2.17 13.29 10.848 13.822 8.679.532 15.007 1.242 23.323-3.195" fill="#A2EBAB"/>
        <path d="M99.138 298.133s19.139-7.362 16.172-14.228c-2.968-6.866-9.444-6.378-9.39-16.395.054-10.017-1.724-30.31-4.485-31.424-2.76-1.114-8.192 12.659-8.114 19.367.078 6.709-5.21 8.26-9.273 16.331-4.063 8.072-1.18 14.792 5.503 20.056 6.681 5.264 9.587 6.293 9.587 6.293" fill="#E7F3E9"/>
        <path d="M98.795 299.089c-2.464-8.846-3.425-18.135-3.21-27.353.116-4.613.539-9.22 1.318-13.763.775-4.54 1.789-9.055 3.43-13.35-1.633 9.026-2.504 18.083-2.736 27.167-.124 4.54-.081 9.087.14 13.632.155 4.556.668 9.082 1.058 13.667" fill="#E6E9F8"/>
        <path d="M100.333 298.133c-3.881-.318-7.722-1.004-11.516-1.905-3.794-.908-7.52-2.128-11.119-3.716-1.764-.875-3.508-1.813-5.096-3.021-1.644-1.129-2.965-2.767-4.138-4.176-1.237-1.436-2.588-2.784-4.096-3.93-1.49-1.132-3.171-2.216-5.124-2.335 1.987-.21 3.867.786 5.534 1.764 1.652 1.073 3.135 2.374 4.508 3.76 1.418 1.417 2.507 2.854 4.104 3.875 1.51 1.1 3.21 1.964 4.926 2.774 3.438 1.645 7.11 2.83 10.793 3.952 3.693 1.11 7.444 2.06 11.224 2.958" fill="#E6E9F8"/>
        <path d="M98.422 298.932s13.858 6.91 18.69 2.517c4.83-4.393 1.486-10.131 10.984-12.923 9.498-2.791 23.078-8.126 20.695-12.737-2.384-4.612-7.835 3.978-15.355 1.258-7.52-2.72-13.36-8.425-20.34-1.181-6.98 7.244-12.353 12.275-14.674 23.066" fill="#9ADBAE"/>
        <path d="M98.422 298.133c3.266-3.113 6.834-5.912 10.56-8.506 3.729-2.588 7.69-4.882 11.883-6.787 2.141-.86 4.325-1.655 6.633-2.11 2.279-.565 4.767-.463 6.937-.407 2.244.022 4.494-.123 6.686-.556 2.163-.428 4.428-1.058 6.035-2.656-1.337 1.877-3.677 2.745-5.837 3.444-2.235.613-4.545.906-6.849 1.04-2.363.15-4.493 0-6.64.606-2.149.47-4.232 1.283-6.279 2.151-4.122 1.722-8.008 3.995-11.846 6.328-3.836 2.348-7.571 4.867-11.283 7.453" fill="#E6E9F8"/>
        <path d="M412.337 232.52a1.23 1.23 0 0 0-.201.16c-5.97 5.158-12.367 10.042-15.24 16.02-.36.731-.674 1.507-.898 2.282a14.183 14.183 0 0 0-.695 4.382c0 9.973 8.26 22.684 10.593 32.953 1.033 4.519.92 8.558-1.548 11.708-1.661 2.144-4.4 3.856-8.619 4.997-3.95 1.118-9.202 1.711-16.07 1.711H274.394s-14.431-34.253 33.083-34.253c0 0-6.015-40.37 16.856-52.602.247-.137.493-.274.74-.388 3.906-2.054 7.452-3.675 10.662-5.134 4.6-2.1 8.529-3.88 11.76-6.231 6.51-4.678 10.28-11.547 11.402-27.43.158-2.419.27-5.044.314-7.897.606-37.904 52.319-27.521 34.88 0a314.367 314.367 0 0 1-5.342 8.102c-5.185 7.6-10.078 14.149-13.67 19.695a66.702 66.702 0 0 0-2.266 3.674c-5.163 8.923-5.657 14.856 3.838 18.073 3.703 1.256 7.182-.091 10.48-2.76 12.817-10.43 23.21-41.078 34.925-18.965 7.9 14.925-.359 23.78-9.719 31.904" fill="#E7F3E9"/>
        <path d="M350.782 291.375c3.563 7.206 28.438-7.839 47.913-4.273 19.474 3.565 6.648-17.69 8.552-27.934 1.905-10.245 22.622-12.813 22.752-22.002.129-9.19-9.366-13.202-19.035-4.961-9.667 8.24 1.905-10.245-3.086-13.172-4.99-2.927-23.06 25.677-26.072 18.491-3.013-7.185.61-25.116-15.083-4.272-15.692 20.845-23.613 42.61-15.941 58.123" fill="#4AAF7D"/>
        <path d="m388.982 274.857-.14-1.917c-8.384 2.617-17.918-.739-20.953-1.972 4.815-6.271 10.034-12.04 14.422-14.47 4.552-2.519 9.281-4.083 14.287-5.737 2.37-.784 4.763-1.589 7.158-2.495 1.354 1.024 5.62 3.986 7.796 2.443l-.622-1.675c-.749.53-2.9-.342-4.931-1.649 4.91-2.03 9.791-4.675 14.445-8.883l-.809-1.524c-7.33 6.627-15.399 9.295-23.202 11.875-.363.12-.732.246-1.096.367-.51-1.24-1.494-4.883 1.941-9.82l-1.153-1.131c-3.667 5.273-3.081 9.507-2.444 11.506-3.982 1.345-8.007 2.83-11.816 4.938-2.07 1.145-4.29 2.966-6.552 5.189-1.376-2.279-5.526-10.196-2.531-18.615l-1.468-.52c-2.834 7.975-.103 15.282 1.747 18.89.347.676.66 1.216.903 1.612-10.638 11.114-21.736 30.127-22.32 31.13l1.264.957c.104-.18 6.275-10.755 13.714-20.714 2.421 1.055 12.876 5.175 22.36 2.215" fill="#F2F2F2"/>
        <path d="M350.206 294.194c8.661 2.644 19.845-40.147 36.97-45.87 25.582-8.548.464-27.265-5.048-37.96-5.513-10.694 12.853-33.508 6.368-41.529-6.485-8.021-18.637-2.022-22.141 14.673-3.504 16.695-5.513-10.694-12.489-8.243-6.974 2.45-4.025 44.992-12.134 41.817-8.11-3.175-17.475-22.179-17.79 11.334-.314 33.512 7.617 60.084 26.264 65.778" fill="#A2EBAB"/>
        <path d="m373.6 242.932-1.522-1.53c-6.37 10.812-18.186 17.58-22.068 19.59.217-10.371 1.193-20.716 3.762-27.299 2.665-6.829 6.194-13.004 9.933-19.54 1.769-3.094 3.545-6.232 5.25-9.459 2.074-.483 8.415-2.236 9.445-5.796l-1.822-.83c-.354 1.225-3.105 2.651-6.05 3.577 3.373-6.765 6.272-14.04 7.819-22.447l-1.898-.51c-2.435 13.241-8.46 23.78-14.285 33.968-.271.473-.543.958-.815 1.435-1.397-.564-4.998-2.744-5.18-10.547l-1.952.187c.195 8.333 3.831 11.432 5.9 12.53-2.95 5.224-5.844 10.613-8.075 16.327-1.212 3.105-2.085 6.953-2.707 11.193-3.002-.59-12.807-3.279-15.937-13.673l-1.82 1.038c2.965 9.845 10.931 13.445 15.361 14.711.83.238 1.528.39 2.053.49-2.456 20.521.34 48.407.49 49.875l1.936-.45c-.027-.261-1.584-15.77-1.446-32.03 3.146-1.542 16.422-8.578 23.628-20.81" fill="#E6E9F8"/>
        <path d="M394.644 305.066c-3.92 1.09-9.13 1.667-15.946 1.667h-104.45s-.535-9.866 11.98-9.288c12.517.533 23.386 2.4 30.334-3.112 5.924-4.666 7.773-12.933 16.035-14.177 1.47-.245 3.163-.245 5.123.045 7.683 1.133 7.728 5.155 11.313 8.466.09.089.178.178.29.266.512.445 1.114.868 1.804 1.29.334.2.713.4 1.113.6.468.222.958.421 1.492.621.558.222 1.181.423 1.872.6 2.27.623 5.144 1.09 8.907 1.312 22.495 1.288 18.24 8.577 25.545 7.822 1.515-.155 3.118 2.156 4.588 3.888" fill="#9ADBAE"/>
        <path d="M103.614 306.733c-7.235.71-10.532 3.667-5.953 3.143s7.418.972 10.075 1.42c2.655.45 20.33.3 18.223-1.495-2.106-1.796-8.79-1.496-11.355-1.796-2.565-.3-10.99-1.272-10.99-1.272" fill="#A49AF8"/>
        <path d="M124.962 302.259c0 6.586-14.118 8.297-14.118 8.297s5.274-2.013 5.274-8.6c0-6.588 11.926-8.6 11.926-8.6s-3.082 2.315-3.082 8.903" fill="#B09FF8"/>
        <path d="M95.772 302.259c0 6.586 14.117 8.297 14.117 8.297s-5.274-2.013-5.274-8.6c0-6.588-11.926-8.6-11.926-8.6s3.083 2.315 3.083 8.903" fill="#9ADBAE"/>
        <path d="M114.667 301c0 4.75-1.926 8.6-4.3 8.6-2.375 0-4.3-3.85-4.3-8.6s4.3-8.6 4.3-8.6 4.3 3.85 4.3 8.6" fill="#A3DB9A"/>
        <path d="m273.375 19.245 6.053 5.263v4.62a4.317 4.317 0 0 0 4.317 4.316h54.027a4.317 4.317 0 0 0 4.317-4.317V9.095a4.329 4.329 0 0 0-4.317-4.317h-54.027a4.32 4.32 0 0 0-4.317 4.317v4.62l-6.05 5.15a.251.251 0 0 0-.003.38" fill="#CFF6E3"/>
        <path fill-opacity=".758" fill="#FFF" d="M315.333 17.2h19.111v-5.733h-19.11zM287.622 27.711h45.867v-8.6h-45.867z"/>
        <path d="m301.956 301.532-1.123.424c-6.058-15.57-5.737-22.024-5.525-26.295.17-3.414.273-5.474-2.944-9.999-7.46-10.493-8.522-16.77-8.564-17.033l1.188-.185c.01.063 1.085 6.305 8.36 16.54 3.453 4.856 3.337 7.195 3.16 10.735-.206 4.17-.52 10.476 5.448 25.813" fill="#0A0"/>
        <path d="M286.615 243.007c.454 2.095-2.241 5.437-2.241 5.437s-3.84-1.951-4.294-4.046c-.453-2.096.642-4.106 2.447-4.49 1.804-.383 3.635 1.003 4.088 3.099" fill="#53CF3F"/>
        <path d="M285.648 242.331a.158.158 0 0 0-.21.033l-1.158 1.511-.464-2.01c-.017-.074-.097-.122-.178-.106-.08.016-.133.09-.115.165l.828 3.59-2.27-.622c-.078-.02-.163.021-.186.095-.023.074.023.15.102.173l2.426.664.579 2.51c.018.075.097.123.178.107.081-.016.133-.09.116-.165l-.93-4.03 1.317-1.72a.134.134 0 0 0-.035-.195" fill="#0A0"/>
        <path d="M294.059 254.427c-.709 2.07-4.752 3.573-4.752 3.573s-2.255-3.73-1.547-5.802c.709-2.07 2.692-3.25 4.432-2.635 1.74.616 2.575 2.793 1.867 4.864" fill="#53CF3F"/>
        <path d="M293.343 252.96a.148.148 0 0 0-.198-.08l-1.844.82.73-2.18a.159.159 0 0 0-.093-.2.15.15 0 0 0-.192.096l-1.305 3.898-1.602-1.829a.147.147 0 0 0-.212-.01.162.162 0 0 0-.01.222l1.711 1.954-1.06 3.097a.16.16 0 0 0 .093.199.15.15 0 0 0 .192-.097l1.613-4.748 2.099-.935a.16.16 0 0 0 .078-.206" fill="#0A0"/>
        <path d="M282.363 259.885c2.102.329 5.26-2.56 5.26-2.56s-2.157-3.72-4.26-4.049c-2.102-.33-4.03.884-4.308 2.708-.276 1.826 1.205 3.572 3.308 3.901" fill="#53CF3F"/>
        <path d="M281.667 257.946a.141.141 0 0 1 .023-.203l1.553-1.202-2.182-.324a.145.145 0 0 1-.126-.164.15.15 0 0 1 .171-.12l3.9.577-.8-2.14a.143.143 0 0 1 .09-.184.152.152 0 0 1 .192.087l.854 2.286 3.108.438a.146.146 0 0 1 .126.165.15.15 0 0 1-.171.12l-4.76-.682-1.767 1.368a.155.155 0 0 1-.211-.022" fill="#0A0"/>
        <path d="M303.56 283.352c-1.59 1.668-6.253 1.385-6.253 1.385s-.645-4.497.945-6.165c1.59-1.667 4.068-1.95 5.533-.63 1.466 1.32 1.366 3.742-.225 5.41" fill="#53CF3F"/>
        <path d="M302.911 281.06a.148.148 0 0 0-.144-.151l-1.916-.015 1.442-1.62a.155.155 0 0 0-.007-.212.141.141 0 0 0-.204.008l-2.576 2.895-.727-2.24a.143.143 0 0 0-.182-.094.152.152 0 0 0-.09.19l.776 2.394-2.067 2.289a.155.155 0 0 0 .008.212.14.14 0 0 0 .203-.008l3.159-3.516 2.18.017a.15.15 0 0 0 .145-.15" fill="#ADADEA"/>
        <path d="M290.72 289.47c2.09.499 5.502-2.121 5.502-2.121s-1.874-3.882-3.966-4.38c-2.092-.5-4.131.551-4.556 2.347-.424 1.795.928 3.655 3.02 4.154" fill="#53CF3F"/>
        <path d="M290.117 287.555a.153.153 0 0 1 .04-.212l1.673-1.142-2.18-.518a.153.153 0 0 1 .07-.297l3.896.927-.627-2.32a.152.152 0 0 1 .107-.188.154.154 0 0 1 .187.107l.67 2.482 3.107.715a.153.153 0 0 1-.069.297l-4.759-1.108-1.903 1.298a.153.153 0 0 1-.212-.04" fill="#0A0"/>
        <path d="M302.945 269.596c-1.298 1.718-5.469 1.782-5.469 1.782s-.89-4.277.406-5.995c1.298-1.717 3.483-2.167 4.881-1.003 1.398 1.163 1.479 3.498.182 5.216" fill="#53CF3F"/>
        <path d="M301.955 268.453c-.005-.077-.078-.135-.162-.13l-2.008.13 1.385-1.625a.134.134 0 0 0-.024-.198.16.16 0 0 0-.213.024l-2.475 2.902-.935-2.043a.157.157 0 0 0-.2-.073c-.075.03-.111.112-.079.184l1 2.183-1.99 2.298a.136.136 0 0 0 .025.198.16.16 0 0 0 .213-.023l3.038-3.529 2.285-.147c.083-.006.146-.073.14-.15" fill="#0A0"/>
        <path d="M289.503 272.207c2.074.683 5.764-1.62 5.764-1.62s-1.55-4.026-3.625-4.709c-2.074-.683-4.234.182-4.825 1.929-.59 1.747.612 3.718 2.686 4.4" fill="#53CF3F"/>
        <path d="M288.035 269.967c-.042-.071-.014-.161.061-.202l1.81-.958-2.177-.69a.146.146 0 0 1-.099-.186.158.158 0 0 1 .197-.094l3.89 1.232-.43-2.296a.15.15 0 0 1 .127-.17.155.155 0 0 1 .18.119l.46 2.453 3.106.96c.081.025.126.109.099.187a.16.16 0 0 1-.198.093l-4.754-1.482-2.06 1.09a.161.161 0 0 1-.212-.056" fill="#0A0"/>
        <path d="M308.088 274.2c-.25 5.952-.072 7.872 1.878 15.054 1.942 7.194 2.487 4.881-.948 6.996-3.435 2.116-4.765 9.81-4.765 9.81s-1.07.683-2.202 1.16c-.175.075-.35.15-.52.206-.864.31-1.686.418-2-.08-.786-1.238-2.763-3.885-5.995-5.28-3.238-1.382-1.167-5.388-4.8-9.272-3.63-3.884-5.928-6.521-1.709-7.719.112-.03.218-.049.335-.062.678-.098 1.428.084 2.218.454.337.155.674.345 1.008.566.175.102.352.215.523.338.081.063.171.123.264.192a23.144 23.144 0 0 1 2.395 2.092c1.344 1.322 2.582 2.766 3.5 3.91a49.62 49.62 0 0 1 1.616 2.115s.05-.202.092-.534l-.002-.009c.116-.972.135-3.057-1.317-4.971a6.49 6.49 0 0 0-.545-.634c-.426-.43-.788-.823-1.075-1.177-.02-.005-.021-.014-.026-.031-.02-.005-.025-.022-.027-.03a3.577 3.577 0 0 1-.298-.362c-.442-.597-.66-1.074-.632-1.534.02-.344.183-.68.49-1.027.259-.286.626-.583 1.093-.917.116-.088.243-.169.37-.25.038-.03.085-.06.124-.09.608-.4 1.01-1.196 1.316-2.258.047-.173.103-.347.138-.536.23-.89.41-1.937.603-3.072.326-1.83.694-3.897 1.354-5.939.321-1 .719-1.992 1.21-2.944l.008-.003a13.684 13.684 0 0 1 1.4-2.186c.398-.53.842-1.027 1.338-1.5 6.307-5.99 3.84 3.583 3.588 9.525" fill="#9ADBAE"/>
        <path d="M307.689 269.467c-1.412 2.576-2.119 5.42-2.697 8.252a9.54 9.54 0 0 0-.102.49 65.722 65.722 0 0 0-.582 3.571c-.25 1.844-.443 3.69-.616 5.542-.27 3.043-.42 6.111-.505 9.172-.105 3.02-.147 6.06-.08 9.083-.18.073-.36.147-.537.2a130.893 130.893 0 0 0-2.094-4.076 83.146 83.146 0 0 0-2.297-4.007 49.694 49.694 0 0 0-2.583-3.842c-.925-1.234-1.927-2.44-3.196-3.367 1.326.859 2.39 2.048 3.373 3.25a41.212 41.212 0 0 1 2.718 3.78 82.087 82.087 0 0 1 4.046 7.011 180.62 180.62 0 0 1-.034-3.112 212.638 212.638 0 0 1 .05-4.94 154 154 0 0 1 .59-9.205 75.64 75.64 0 0 1 .623-4.967c.214-1.397.469-2.776.763-4.156.062-.29.128-.57.202-.854a35.32 35.32 0 0 1 1.02-3.609c.5-1.46 1.101-2.9 1.938-4.216" fill="#53CF3F"/>
        <path d="M322.433 333.648c-49.54 0-76.986-12.422-44.854-12.422 32.134 0-32.132-14.493 7.365-14.493h111.127c28.117 0 46.86 19.669 3.347 19.669-43.514 0-33.472 10.093-13.054 10.093S414.815 344 361.26 344c-62.927 0-38.827-10.352-38.827-10.352M148.005 307.066c-52.747-1.249-140.368 1.05-117.852 6.42 26.758 6.382 12.935 8.446-3.832 8.784-16.768.338-52.578 7.433 5.748 7.433 31.628 0-.838 10.475 52.22 10.475h95.335c21.08 0 45.25-6.643 27.046-9.683-18.205-3.041-37.85-10.695-10.065-10.357 27.787.337 22.782-11.383-48.6-13.072" fill="#E7F3EC"/>
        <path d="M261.948 19.111a460.406 460.406 0 0 0-4.904-1.517l.8-2.305a422.91 422.91 0 0 1 4.934 1.526l-.83 2.296zM190.601 3.02a183.538 183.538 0 0 0-9.686-.517L180.98 0c3.173.084 6.474.26 9.814.525l-.193 2.496zm-29.017.218L161.313.75c3.143-.35 6.451-.589 9.829-.71l.087 2.5c-3.315.12-6.56.355-9.645.698zm48.29 2.182a241.179 241.179 0 0 0-9.615-1.407l.306-2.483c3.154.395 6.422.874 9.714 1.422l-.405 2.468zm-67.113 1.806-.782-2.376a83.482 83.482 0 0 1 9.574-2.564l.498 2.452a80.952 80.952 0 0 0-9.29 2.488zm86.175 2.071a296.194 296.194 0 0 0-9.498-2.1l.489-2.454c3.14.639 6.332 1.345 9.58 2.117l-.571 2.437zm18.802 5.059a356.53 356.53 0 0 0-9.366-2.665l.64-2.418c3.098.835 6.242 1.73 9.432 2.683l-.706 2.4zm-120.755 3.026a70.344 70.344 0 0 0-9.588-.263l-.099-2.5a73.099 73.099 0 0 1 7.496.079l-.36-.44c2.453-2.045 5.27-3.906 8.369-5.531l1.144 2.221c-2.46 1.289-4.727 2.731-6.758 4.298l-.204 2.136zm-28.45 3.05-.748-2.385a73.048 73.048 0 0 1 9.644-2.369l.424 2.466a70.634 70.634 0 0 0-9.32 2.288zm46.842 1.809c-2.734-1.306-5.75-2.39-8.964-3.218l.612-2.424c3.37.867 6.538 2.005 9.413 3.38l-1.06 2.262zm-63.984 6.638-1.425-2.047a62.31 62.31 0 0 1 8.584-5.081L89.633 24a60.097 60.097 0 0 0-8.242 4.878zm34.111 2.709-2.367-.75a33.784 33.784 0 0 1 4.448-9.141l2.038 1.43a31.213 31.213 0 0 0-4.119 8.46zm43.607 2.99c-1.355-2.639-3.307-5.073-5.804-7.237l1.616-1.899c2.74 2.375 4.89 5.062 6.39 7.986l-2.202 1.15zm-91.226 7.833-2-1.483a73.148 73.148 0 0 1 4.247-5.29 54.46 54.46 0 0 1 2.197-2.35l1.754 1.769a52.46 52.46 0 0 0-2.098 2.245 70.967 70.967 0 0 0-4.1 5.109zm47.205 8.418c-1.958-2.891-3.074-6.198-3.315-9.827l2.475-.168c.212 3.178 1.184 6.066 2.89 8.585l-2.05 1.41zm45.431 2.542-1.942-1.556c1.853-2.357 2.793-5.127 2.794-8.233l2.481-.127c-.001 3.812-1.123 7.107-3.333 9.916zm-101.618 6.05-2.335-.843a69.338 69.338 0 0 1 4.022-9.169l2.19 1.179a66.525 66.525 0 0 0-3.877 8.834zm73.361 1.723c-3.502-.684-6.708-1.841-9.53-3.438l1.215-2.183c2.59 1.465 5.546 2.531 8.788 3.165l-.473 2.456zm10.056.58-.192-2.496c3.263-.254 6.41-.983 9.104-2.106l.947 2.312c-2.973 1.241-6.291 2.012-9.86 2.29zm-87.26 16.598-2.476-.166a75.236 75.236 0 0 1 1.317-9.925l2.43.5a72.857 72.857 0 0 0-1.271 9.591zm-1.335 19.761a86.721 86.721 0 0 1-1.167-9.923l2.475-.148a84.066 84.066 0 0 0 1.134 9.634l-2.442.437zm5.527 19.143a96.915 96.915 0 0 1-3.266-9.422l2.382-.701a94.498 94.498 0 0 0 3.18 9.177l-2.296.946zm9.293 17.585a96.886 96.886 0 0 1-5.093-8.555l2.19-1.176a94.664 94.664 0 0 0 4.96 8.333l-2.057 1.398zm12.803 15.211a82.186 82.186 0 0 1-6.84-7.239l1.894-1.616a79.498 79.498 0 0 0 6.632 7.02l-1.686 1.835z" fill="#70E3AB"/>
        <path d="M93.326 157.667a63.117 63.117 0 0 1-4.46-2.715l1.458-2.063a61.118 61.118 0 0 0 4.276 2.603l-1.274 2.175z" fill="#BFD3EF"/>
        <path d="m132.822 187.834 3.951-3.008 17.697-18.56 5.108 3.505-15.925 22.54c-.867 1.043-2.088 2.262-3.51 3.578-1.473-3.405-5.03-6.395-7.32-8.055M162.992 310.556l-.32 2.283s-.04.05-.011.225l.007.044c-.046.634-.126 2.258.251 3.372.098.3.237.55.417.75.97 1.124-9.492.962-9.492.962s.411-.503.724-1.306c.252-.572.339-2.465.379-5.249l8.045-1.081z" fill="#FFE7DD"/>
        <path d="m174.63 325.844-20.955-2.133c-1.294-2.368-.94-4.677.692-6.94 3.426.59 6.674.585 9.608-.482 2.507 2.56 6.41 4.764 10.929 6.809 1.438.787 1.064 1.727-.274 2.746" fill="#616565"/>
        <path fill="#999" d="m153.844 324.788 20.933 2.012.09-.854-20.932-2.013z"/>
        <path d="M167.275 251.532c3.246.912 5.425 2.367 5.64 5.588.735 11.046-8.723 56.114-8.908 57.258l-8.196-.841-.395-.107c-1.662-11.725-1.425-25.507.873-40.598-2.838 4.767-41.347 14.05-42.302 11.112l-1.423-5.322-4.586-17.11c.237-.054.448-.08.685-.134 1.53-.266 3.197-.253 4.692-.852 8.247-3.306 48.31-10.57 53.92-8.994" fill="#11D073"/>
        <path d="m303.522 182.37-17.363 17.361-51.22 51.217c-5.58 5.58-14.634 5.58-20.19 0l-95.915-95.886c-5.556-5.58-5.556-14.607 0-20.188l16.742-16.741 35.097-35.095 16.743-16.742c5.58-5.58 14.634-5.58 20.19 0l89.517 89.486 6.399 6.399c5.556 5.58 5.556 14.609 0 20.19" fill="#CFF6E3"/>
        <path d="m182.984 171.172-12.767 12.768a4.91 4.91 0 0 1-6.944 0l-12.768-12.768a4.91 4.91 0 0 1 0-6.944l12.768-12.768a4.91 4.91 0 0 1 6.944 0l12.767 12.768a4.91 4.91 0 0 1 0 6.944M200.212 132.235l-11.6 11.599a4.816 4.816 0 0 1-6.81 0l-1.703-1.703a4.816 4.816 0 0 1 0-6.81l11.6-11.6a4.817 4.817 0 0 1 6.81 0l1.703 1.703a4.816 4.816 0 0 1 0 6.81M234.558 119.235l-36.012 36.012a5 5 0 0 1-7.07 0l-1.767-1.767a5 5 0 0 1 0-7.07l36.012-36.013a5 5 0 0 1 7.07 0l1.767 1.768a5 5 0 0 1 0 7.07M214.518 201.75l-12.768 12.767a4.909 4.909 0 0 1-6.944 0l-12.768-12.767a4.91 4.91 0 0 1 0-6.944l12.768-12.768a4.909 4.909 0 0 1 6.944 0l12.768 12.768a4.911 4.911 0 0 1 0 6.944M231.745 162.813l-11.599 11.599a4.817 4.817 0 0 1-6.81 0l-1.703-1.703a4.817 4.817 0 0 1 0-6.81l11.6-11.6a4.815 4.815 0 0 1 6.81 0l1.702 1.703a4.816 4.816 0 0 1 0 6.81M267.047 149.813l-36.012 36.012a4.998 4.998 0 0 1-7.07 0l-1.767-1.768a4.998 4.998 0 0 1 0-7.07l36.012-36.012a5 5 0 0 1 7.07 0l1.767 1.768a5 5 0 0 1 0 7.07" fill="#70E3AB"/>
        <path d="m180.919 93.593-1.768 1.767-1.617-1.616a1.953 1.953 0 0 0-2.753 0l-.327.354c-.758.732-.758 1.97 0 2.727l1.59 1.59.026.026-25.076 25.074v-.025l-1.617-1.617a1.921 1.921 0 0 0-2.727 0l-.353.354a1.92 1.92 0 0 0 0 2.727l1.616 1.617h.025l-1.793 1.792c-.909.909-2.45.833-3.435-.151l-4.519-4.546c-3.966-3.939-4.217-10.075-.581-13.711l.758-.758-2.071-2.07c-1.97-1.969-2.096-5.025-.278-6.843l16.818-16.842c1.818-1.793 4.9-1.667 6.87.303l2.07 2.07.758-.757c3.61-3.636 9.772-3.384 13.711.555l4.521 4.545c.985.985 1.06 2.526.152 3.435" fill="#0C9251"/>
        <path d="M62.353 311.722s-3.69-.31-4.904.679c-1.215.99-1.065-9.49-1.065-9.49s5.422 3.094 7.851 1.855c2.43-1.24-1.882 6.956-1.882 6.956" fill="#FFE7DD"/>
        <path d="m49.689 320.933 1.887-19.207c2.133-1.19 4.216-.872 6.26.621-.526 3.14-.515 6.118.453 8.804-2.306 2.303-4.285 5.884-6.122 10.027-.708 1.32-1.555.98-2.478-.245" fill="#616565"/>
        <path fill="#999" d="m50.733 301.956-2 19.982.868.084L51.6 302.04z"/>
        <path d="M102.835 272.364c-.75.324.438 9.842 11.687 33.213-20.125-1.892-39.008-3.244-52.704-2.344l-.075.982-.492 6.12-.095 1.118 54.587 9.475c27.47 2.839 22.24-38.612 10-52.417l-22.908 3.853z" fill="#11D073"/>
        <path d="M101.519 271.328c21.02.85 39.984-9.43 36.655-17.305-9.745-15.172-4.458-17.842-7.33-36.56-.021-.023-.021-.023-.021-.045a216.897 216.897 0 0 0-1.742-9.785c-.158-.763-.317-1.549-.497-2.356a193.492 193.492 0 0 0-3.076-12.255c-3.164.875-6.217 1.661-9.089 2.513-3.459 1.011-6.67 2.066-9.564 3.435-3.73 1.728-6.942 3.95-9.496 7.137-7.936 23.7 3.73 35.865 4.16 65.221" fill="#FFF"/>
        <path d="M109.889 219.266c2.463.132 4.326.264 5.9.353.112.021.222.021.333.021 4.304.263 6.166.22 11.158-.769.488-.088.976-.176 1.486-.286a26.69 26.69 0 0 0 2.263-1.098c.443-.197.888-.44 1.33-.703.023-.023.023-.023.046-.023 6.587-3.734 14.24-10.15 22.16-17.334.333-.263.643-.571.976-.88.421-.372.864-.768 1.287-1.141.354-.33.731-.682 1.087-1.011l1.663-1.516-4.126-4.723-2.285 1.537-3.793 2.593-20.075 13.578-4.725 3.207-11.912-1.692c-.067 3.692-.954 6.987-2.773 9.887" fill="#FFE7DD"/>
        <path d="m116.788 189.2-10.721 3.061c2.039 3.15 2.183 4.28 1.247 8.075 2.478 3.537 14.727-1 10.167-4.23-1.41-3.16-1.126-3.539-.693-6.906" fill="#FFDCCE"/>
        <path d="M120.585 192.256c-.695 1.406-7.295 1.97-14.268 1.62l-5.984-16.551L114.575 172c6.552 6.363 7.868 18.133 6.01 20.256M154.898 191.064c-.335-1.986.268-3.875.65-5.622 1.001-.797 1.231-.57 2.069 0-.025 1.162-.043 1.702.88 2.407 1.789-.81 2.96-4.518 3.3-4.379 1.06.533 1.818 2.465 2.397 4.464.297 2.17.23 3.375-.58 5.542-1.346 1.18-2.883 2.017-4.67 2.413l-4.046-4.825z" fill="#FFE7DD"/>
        <path d="M117.927 171.517c2.395.727 1.435 4.605.623 7.288-3.239 1.15-5.196 1.271-8.492.463.206 2.382.377 5.839 1.633 6.587 0 0-.991 1.388-2.364 1.447-.45-1.384-1.203-2.43-2.41-2.638-.765-.109-.893-.053-1.548.694-.784.967-.039 2.052 1.092 2.5 2.672.914.766 4.138.591 6.098-1.961.166-4.029-.641-4.792-1.824-2.734-3.278-4.79-6.22-3.38-11.49-.183-4.403 3.136-9.696 8.009-9.596 6.497 2.669 6.805-.708 11.038.471" fill="#616565"/>
        <path d="m125.178 193.494 7.343-5.25c2.486 1.692 6.347 4.739 7.946 8.208-3.725 3.235-8.867 7.11-14 10.904l-1.29-13.862z" fill="#FFF"/>
        <path d="m302.551 152.512-6.421-6.312-46.349 19.157-.97.417-28.078 31.024 42.192 1.958.995-.392v-.024l21.208-8.784 17.423-17.127a13.948 13.948 0 0 0 0-19.917" fill="#C2C9CA" opacity=".303"/>
        <path d="m404.2 296.619 1.644 1.484s.057.012.15.158l.024.037c.429.439 1.508 1.585 1.98 2.642.128.282.2.553.216.813.11 1.433 6.497-5.209 6.497-5.209s-.574-.115-1.276-.512c-.519-.264-1.772-1.606-3.56-3.632l-5.675 4.219z" fill="#EDB6A4"/>
        <path d="m406.286 315.301 13.203-14.067c-.613-2.311-2.334-3.586-4.917-4.056-2.003 2.455-4.264 4.42-6.986 5.508-.107 3.17-1.412 6.955-3.245 11.01-.497 1.38.362 1.759 1.945 1.605" fill="#616565"/>
        <path fill="#A8CFEF" d="m420.444 300.6-13.668 14.733-.665-.555 13.668-14.734z"/>
        <path d="m340.178 305.778.534 2.078s.04.042.036.207v.041c.11.581.368 2.074.178 3.145a1.956 1.956 0 0 1-.265.737c-.687 1.142 8.117-.11 8.117-.11s-.405-.423-.762-1.132c-.278-.502-.57-2.245-.928-4.814l-6.91-.152z" fill="#EDB6A4"/>
        <path d="m330.911 321.067 18.405-4.324c.89-2.286.322-4.33-1.381-6.187-2.981.924-5.871 1.29-8.6.663-1.947 2.6-5.177 5.034-8.97 7.398-1.193.876-.757 1.681.546 2.45" fill="#616565"/>
        <path fill="#A8CFEF" d="m349.733 317.997-18.925 4.025-.186-.752 18.925-4.026z"/>
        <path d="m337.338 153.309-8.263 6.556-15.791-35.643-6.55 4.866c6.583 15.195 12.705 34.238 17.53 37.908 3.274 1.207 9.384 3.563 15.914 4.048l-2.84-17.735z" fill="#70E3AB"/>
        <path d="m410.889 293.764-.93.736-5.535 4.298-.881.687-29.556-35.63c-2.4-2.16-8.423-16.697-13.468-27.845-3.28 6.998-9.574 16.476-19.075 25.243 2.4 7.121 3.747 27.182 5.755 45.697l-.539.123-6.783 1.424-.71.147c-4.163-16.795-11.558-38.6-12.366-47.956-.147-3.929 11.092-29.245 19.1-48.522.539-1.3 1.077-2.603 1.592-3.855l29.63 4.052 3.647.49c.147.443.294.885.417 1.351.514 1.695.954 3.61 1.322 5.747 1.592 8.937 2.375 21.412 3.55 34.917 5.388 5.23 15.084 23.377 24.83 38.896" fill="#666"/>
        <path d="m403.208 126.337-42.244 17.952-2.184.926c-.35.148-.701.298-1.021.432l-.007.023c-.024-.007-.054.01-.084.026l-.99.417-.024-.007-.036.04c-.67.282-1.31.55-1.92.8l-6.995 2.97-.008.024-13.2 5.595c-.03.017-.054.01-.085.026l-1.05.449-.007.024-17.22 7.293-6.243 2.662-9.333 3.977-39.792 16.906-.99.417-41.908-1.992 27.877-31.633.967-.423 63.84-27.119.732-.316 7.582-3.229 1.919-.8 68.4-29.088a42.588 42.588 0 0 1 10.689 15.251c2.523 6.008 3.589 12.288 3.335 18.397" fill="#EEF2F3"/>
        <path d="M399.505 107.97a42.726 42.726 0 0 1 3.298 18.163l3.648-1.548 5.94-2.52c5.915-2.512 8.672-9.384 6.18-15.345l-4.869-11.647c-2.492-5.961-9.288-8.75-15.203-6.24l-5.94 2.522-3.648 1.548c4.45 4.049 8.113 9.132 10.594 15.067M259.88 186.88l-.008.022-1.006.387-42.91-1.957 28.544-31.07.99-.418a42.47 42.47 0 0 1 10.967 14.988c2.56 5.894 3.66 12.04 3.423 18.047M382.947 213.994a5.378 5.378 0 0 1-.74.196c-.938.245-2.047.416-3.28.54-7.672.832-20.278-.32-32.266-2.574-.198-.049-.42-.073-.618-.122 1.234-13.403-.345-23.105-2.935-31.019-1.036-3.186-2.121-6.395-3.108-10.022-.05-.195-.099-.367-.148-.563-1.258-4.753-2.22-10.193-2.54-17.224v-.221c.295-.196.591-.392.887-.613 2.862-1.887 5.674-3.577 8.412-4.998 4.983-2.572 9.769-4.263 14.16-4.802 2.91-.368 5.674-.22 8.214.515 1.135.392 2.146.882 3.01 1.47 3.6 2.327 4.934 5.953 5.92 10.584.197.882.37 1.813.543 2.769.246 1.225.469 2.524.74 3.87 2.984 15.265 4.613 36.974 3.749 52.214" fill="#11D073"/>
        <path d="m310.556 168.336-.9 6.46h-3.074c-.263.548-3.525.958-4.5 1.026-.562 0-3.9-2.837-4.611-3.59-.75-1.161-1.613-3.075-1.088-4.135 2.812-.034 5.662-.069 7.05-.547-.901-1.231-1.553-1.81-1.816-2.7.525-.444 1.162-.58 1.875-.444 1.837.787 3.127 1.777 4.402 3.725l2.662.205z" fill="#FFE7DD"/>
        <path d="M377.444 158.362c-5.617 6.45-11.675 13.477-18.464 18.628v.024c-2.198 1.685-4.494 3.177-6.864 4.405-2.075.289-5.422.096-9.672-.361-10.135-1.108-19.343-3.13-33.216-4.934a23.46 23.46 0 0 0-1.368-.193c-.049 0-.122-.024-.171-.024l.83-6.619.024-.12 8.5.554 22.324 1.491 8.72.362c8.206-11.264 17.072-21.927 22.958-26.33 3.566 2.286 4.885 5.847 5.862 10.396.196.867.367 1.781.537 2.72" fill="#70E3AB"/>
        <path d="M348.033 140.005c.46 2.74.107 5.396-3.077 7.766 3.32 2.57 9.55 1.48 15.288-4.754-1.892-2.456-4.04-4.74-2.9-8.284l-9.31 5.272z" fill="#FFE7DD"/>
        <path d="M337.311 122.224c1.484 11.946 8.05 19.198 10.358 19.198 2.696-.265 5.43-2.791 10.664-7.244l-1.439-12.9-10.12-8.522-9.463 9.468z" fill="#FFDCCE"/>
        <path d="M345.688 122.995c-2.162 3.807-4.715 6.333-7.956 6.601-2.594-.307-4.436-1.598-5.199-4.295.022-4.847-.133-6.23 4.726-10.26 4 1.024 9.732-2.086 13.47-3.182 2.889-.608 7.033 3.626 8.768 7.795 1.682 2.366 0 14.631 0 14.631-.133 1.053-.904 3.059-4.264 3.315-1.76-.612-3.142-2.689-3.401-6.174 1.003-1.833 1.8-3.661 1.85-5.466-.536-1.71-1.548-2.367-3.006-2.037-1.364 1.104-1.428 3.045-1.286 5.117l-1.637.875c-.344-2.78-.618-5.654-2.065-6.92" fill="#616565"/>
        <path d="M312.903 124.505c1.8-.401 2.935-.415 4.137.216.543.613-.091 1.351-.78 1.427l-1.496-.112c.571 1.064 1.108 1.562 2.444 2.513.216 1.604-1.792 3.063-4.305 4.078-1.343.532-4.068-.126-5.306-.753-.803-.532-.942-.826-.83-1.71.55-2.03 4.19-5.253 6.136-5.66" fill="#FFE7DD"/>
    </g>
</svg>
